<svg xmlns="http://www.w3.org/2000/svg" viewBox="0 0 500 577" width="500" height="577">
  <defs>
    <linearGradient id="dg" x1="0.2" y1="0" x2="0.8" y2="1">
      <stop offset="0%" stop-color="#58C4A0"/>
      <stop offset="50%" stop-color="#3A9D7C"/>
      <stop offset="100%" stop-color="#2B7A5E"/>
    </linearGradient>
    <linearGradient id="sg" x1="0" y1="0" x2="0" y2="1">
      <stop offset="0%" stop-color="#E0D4BC"/>
      <stop offset="100%" stop-color="#C8BAA0"/>
    </linearGradient>
    <linearGradient id="sg2" x1="0" y1="0" x2="0" y2="1">
      <stop offset="0%" stop-color="#EAE0CC"/>
      <stop offset="100%" stop-color="#D4C8B0"/>
    </linearGradient>
  </defs>

  <!-- Hex background -->
  <polygon points="250,10 468,136 468,441 250,567 32,441 32,136"
           fill="#14213D" stroke="#4A90D9" stroke-width="7"/>
  <polygon points="250,20 458,141 458,436 250,557 42,436 42,141"
           fill="none" stroke="#4A90D9" stroke-width="1" opacity="0.25"/>

  <!-- Building group -->
  <g transform="translate(250, 270)">

    <!-- === STEPS (3 tiers) === -->
    <rect x="-175" y="58" width="350" height="4" rx="1" fill="#D4C8B0" opacity="0.3"/>
    <rect x="-168" y="54" width="336" height="4" rx="1" fill="#D4C8B0" opacity="0.4"/>
    <rect x="-161" y="50" width="322" height="4" rx="1" fill="#D4C8B0" opacity="0.5"/>

    <!-- === MAIN BUILDING (wide, low - the base) === -->
    <rect x="-185" y="-10" width="370" height="62" rx="1"
          fill="url(#sg)" stroke="#9A8A6E" stroke-width="1.2"/>

    <!-- Top cornice band -->
    <rect x="-188" y="-15" width="376" height="6" rx="1"
          fill="url(#sg2)" stroke="#9A8A6E" stroke-width="0.6"/>

    <!-- Bottom base band -->
    <rect x="-188" y="50" width="376" height="4" rx="1"
          fill="url(#sg2)"/>

    <!-- === COLUMNS (18, trimmed 2 from each side) === -->
    <g stroke="#A89880" stroke-width="1.5" opacity="0.25">
      <line x1="-138" y1="-6" x2="-138" y2="47"/>
      <line x1="-122" y1="-6" x2="-122" y2="47"/>
      <line x1="-106" y1="-6" x2="-106" y2="47"/>
      <line x1="-90" y1="-6" x2="-90" y2="47"/>
      <line x1="-74" y1="-6" x2="-74" y2="47"/>
      <line x1="-58" y1="-6" x2="-58" y2="47"/>
      <line x1="-42" y1="-6" x2="-42" y2="47"/>
      <line x1="-26" y1="-6" x2="-26" y2="47"/>
      <line x1="-10" y1="-6" x2="-10" y2="47"/>
      <line x1="6" y1="-6" x2="6" y2="47"/>
      <line x1="22" y1="-6" x2="22" y2="47"/>
      <line x1="38" y1="-6" x2="38" y2="47"/>
      <line x1="54" y1="-6" x2="54" y2="47"/>
      <line x1="70" y1="-6" x2="70" y2="47"/>
      <line x1="86" y1="-6" x2="86" y2="47"/>
      <line x1="102" y1="-6" x2="102" y2="47"/>
      <line x1="118" y1="-6" x2="118" y2="47"/>
      <line x1="134" y1="-6" x2="134" y2="47"/>
    </g>

    <!-- === CENTRAL RAISED SECTION === -->
    <rect x="-90" y="-30" width="180" height="18" rx="1"
          fill="url(#sg)" stroke="#9A8A6E" stroke-width="0.8"/>
    <rect x="-93" y="-34" width="186" height="5" rx="1"
          fill="url(#sg2)" stroke="#9A8A6E" stroke-width="0.5"/>

    <!-- === DRUM (cylindrical base of dome) === -->
    <rect x="-70" y="-52" width="140" height="20" rx="2"
          fill="url(#sg2)" stroke="#9A8A6E" stroke-width="0.8"/>

    <!-- Drum column details -->
    <g stroke="#A89880" stroke-width="1" opacity="0.2">
      <line x1="-58" y1="-49" x2="-58" y2="-35"/>
      <line x1="-42" y1="-49" x2="-42" y2="-35"/>
      <line x1="-26" y1="-49" x2="-26" y2="-35"/>
      <line x1="-10" y1="-49" x2="-10" y2="-35"/>
      <line x1="6" y1="-49" x2="6" y2="-35"/>
      <line x1="22" y1="-49" x2="22" y2="-35"/>
      <line x1="38" y1="-49" x2="38" y2="-35"/>
      <line x1="54" y1="-49" x2="54" y2="-35"/>
    </g>

    <!-- === DOME === -->
    <path d="M -68,-52 A 68,65 0 0,1 68,-52 Z"
          fill="url(#dg)" stroke="#2B7A5E" stroke-width="2"/>

    <!-- Dome ribs (meridians) -->
    <g stroke="#2B7A5E" stroke-width="0.8" opacity="0.3" fill="none">
      <path d="M -58,-54 Q -50,-85 0,-117"/>
      <path d="M -40,-58 Q -35,-90 0,-117"/>
      <path d="M -20,-60 Q -15,-95 0,-117"/>
      <path d="M 0,-52 L 0,-117"/>
      <path d="M 20,-60 Q 15,-95 0,-117"/>
      <path d="M 40,-58 Q 35,-90 0,-117"/>
      <path d="M 58,-54 Q 50,-85 0,-117"/>
    </g>

    <!-- Dome horizontal ring -->
    <ellipse cx="0" cy="-80" rx="50" ry="3" fill="none"
             stroke="#2B7A5E" stroke-width="0.6" opacity="0.25"/>

    <!-- Dome highlight -->
    <ellipse cx="-18" cy="-85" rx="18" ry="22"
             fill="#5BB89A" opacity="0.1"/>

    <!-- === ENTRANCE (center) === -->
    <rect x="-18" y="10" width="36" height="40" rx="1"
          fill="#D4C8B0" opacity="0.4" stroke="#A89880" stroke-width="0.5"/>
    <rect x="-8" y="20" width="16" height="30" rx="1"
          fill="#14213D" opacity="0.25"/>
  </g>

  <!-- Text -->
  <text x="250" y="470" text-anchor="middle"
        font-family="'SF Mono', 'Menlo', 'Courier New', monospace"
        font-size="40" font-weight="bold"
        fill="white">assemblykor</text>
</svg>